HIERARCHY
ROOT Hips
{
	OFFSET 0.00 0.00 0.00
	CHANNELS 6 Xposition Yposition Zposition Xrotation Yrotation Zrotation
	JOINT LeftUpLeg
	{
		OFFSET 3.44811 0.00000 0.00000
		CHANNELS 3 Xrotation Yrotation Zrotation
		JOINT LeftLeg
		{
			OFFSET 0.00000 -16.89127 0.00000
			CHANNELS 3 Xrotation Yrotation Zrotation
			JOINT LeftFoot
			{
				OFFSET 0.00000 -16.21733 0.00000
				CHANNELS 3 Xrotation Yrotation Zrotation
				JOINT LeftToeBase
				{
					OFFSET 0.00000 -1.79183 6.68720
					CHANNELS 3 Xrotation Yrotation Zrotation
					End Site
					{
						OFFSET 0.00000 0.00000 2.95275
					}
				}
			}
		}
	}
	JOINT RightUpLeg
	{
		OFFSET -3.44811 0.00000 0.00000
		CHANNELS 3 Xrotation Yrotation Zrotation
		JOINT RightLeg
		{
			OFFSET 0.00000 -16.89127 0.00000
			CHANNELS 3 Xrotation Yrotation Zrotation
			JOINT RightFoot
			{
				OFFSET 0.00000 -16.21733 0.00000
				CHANNELS 3 Xrotation Yrotation Zrotation
				JOINT RightToeBase
				{
					OFFSET 0.00000 -1.79183 6.68720
					CHANNELS 3 Xrotation Yrotation Zrotation
					End Site
					{
						OFFSET 0.00000 0.00000 2.95275
					}
				}
			}
		}
	}
	JOINT Spine
	{
		OFFSET 0.00000 0.03937 0.00000
		CHANNELS 3 Xrotation Yrotation Zrotation
		JOINT Spine1
		{
			OFFSET 0.00000 10.84478 0.00000
			CHANNELS 3 Xrotation Yrotation Zrotation
			JOINT Neck
			{
				OFFSET 0.00000 8.84498 0.00000
				CHANNELS 3 Xrotation Yrotation Zrotation
				JOINT Head
				{
					OFFSET 0.00000 5.71605 0.00000
					CHANNELS 3 Xrotation Yrotation Zrotation
					End Site
					{
						OFFSET 0.00000 4.52755 0.00000
					}
				}
			}
			JOINT LeftShoulder
			{
				OFFSET 0.00000 8.84498 0.00000
				CHANNELS 3 Xrotation Yrotation Zrotation
				JOINT LeftArm
				{
					OFFSET 6.73125 -0.00002 0.00000
					CHANNELS 3 Xrotation Yrotation Zrotation
					JOINT LeftForeArm
					{
						OFFSET 11.19281 -0.00004 0.00000
						CHANNELS 3 Xrotation Yrotation Zrotation
						JOINT LeftHand
						{
							OFFSET 9.77593 -0.00004 0.00000
							CHANNELS 3 Xrotation Yrotation Zrotation
							JOINT LeftHandThumb
							{
								OFFSET 0.00000 0.00000 0.00000
								CHANNELS 3 Xrotation Yrotation Zrotation
								End Site
								{
									OFFSET 0.00000 0.00000 3.93700
								}
							}
							JOINT L_Wrist_End
							{
								OFFSET 3.93700 -0.00001 0.00000
								CHANNELS 3 Xrotation Yrotation Zrotation
							}
						}
					}
				}
			}
			JOINT RightShoulder
			{
				OFFSET 0.00000 8.84498 0.00000
				CHANNELS 3 Xrotation Yrotation Zrotation
				JOINT RightArm
				{
					OFFSET -6.73125 -0.00002 0.00000
					CHANNELS 3 Xrotation Yrotation Zrotation
					JOINT RightForeArm
					{
						OFFSET -11.19281 -0.00004 0.00000
						CHANNELS 3 Xrotation Yrotation Zrotation
						JOINT RightHand
						{
							OFFSET -9.77593 -0.00004 0.00000
							CHANNELS 3 Xrotation Yrotation Zrotation
							JOINT RightHandThumb
							{
								OFFSET 0.00000 0.00000 0.00000
								CHANNELS 3 Xrotation Yrotation Zrotation
								End Site
								{
									OFFSET 0.00000 0.00000 3.93700
								}
							}
							JOINT R_Wrist_End
							{
								OFFSET -5.39369 -0.00002 0.00000
								CHANNELS 3 Xrotation Yrotation Zrotation
							}
						}
					}
				}
			}
		}
	}
}
MOTION
Frames: 6
Frame Time: 0.033332
 2.2917 41.3124 9.1581 -35.1932 -81.4346 -34.5493 -2.9319 0.8583 -0.4947 23.7535 -0.0000 0.0000 6.1264 -5.8865 -0.3959 -17.9269 0.0000 -0.0000 1.1832 2.9405 -2.5602 15.9342 -0.0000 0.0000 -9.4926 -0.0820 2.5703 -24.8272 0.0000 -0.0000 -6.8212 5.2222 -1.8077 7.4124 -2.5034 1.9577 23.8120 29.1185 -2.1266 6.7101 -8.1917 4.8490 9.8521 9.2940 -2.5558 4.7066 -31.2122 -77.2132 -0.0001 -23.2720 -0.0000 -29.2144 15.0851 8.5277 -0.0000 -0.0000 0.0000 -0.0000 -0.0000 0.0000 8.9973 -0.1655 -1.5721 10.1821 16.6808 81.4491 -0.0001 29.0335 0.0000 -36.2156 -1.3628 6.9765 -0.0000 0.0000 -0.0000 -0.0000 0.0000 -0.0000
 0.6553 40.6475 9.1443 -31.1078 -82.2240 -30.1617 -5.1384 2.2253 -0.8930 19.4494 -0.0000 0.0000 5.7797 -9.9395 -2.9259 -18.9395 0.0000 0.0000 -3.1787 1.0696 -3.4769 14.0780 -0.0000 0.0000 -12.9955 -0.7154 -0.3012 -25.1010 0.0000 0.0000 -6.5368 5.2716 -1.8690 7.0475 -2.4576 1.6241 23.8471 28.4877 -2.3549 5.7707 -8.5292 5.0414 9.5489 9.2099 -3.3215 3.5395 -31.2535 -76.8753 -0.0001 -23.0156 -0.0000 -29.9834 14.9381 7.9851 -0.0000 0.0000 -0.0000 -0.0000 0.0000 -0.0000 8.6427 0.2068 -1.0414 7.7431 16.4567 81.5408 -0.0001 27.9508 0.0000 -36.7543 -2.1751 6.9955 -0.0000 0.0000 -0.0000 -0.0000 0.0000 -0.0000
 -1.0205 39.5111 9.1354 -31.2976 -82.2475 -30.0257 -7.4139 -0.3454 -1.8731 18.8391 -0.0000 0.0000 5.2341 -9.7542 -1.3044 -20.0917 0.0000 0.0000 -7.5080 0.7525 -4.2164 15.7445 -0.0000 0.0000 -17.6900 -0.0297 -1.1374 -26.1033 -0.0000 -0.0000 -5.8136 5.1292 -1.9386 7.3123 -2.6011 1.2743 23.3065 27.8784 -2.1740 4.9146 -8.6444 4.6237 9.4190 8.7664 -3.6169 2.0148 -31.9432 -76.7552 -0.0001 -22.9562 -0.0000 -29.8370 15.0967 7.9018 -0.0000 0.0000 -0.0000 -0.0000 0.0000 -0.0000 8.2192 0.7804 -1.1376 5.4279 16.7252 82.0070 -0.0001 26.7243 0.0000 -36.5227 -3.4367 6.4759 -0.0000 0.0000 -0.0000 -0.0000 0.0000 -0.0000
 -2.6987 37.8997 9.1146 -35.4906 -82.0377 -34.0602 -10.7325 -2.8390 -2.7343 23.0455 -0.0000 0.0000 6.4180 -9.1490 -3.6306 -19.2925 -0.0000 -0.0000 -12.5095 2.9999 -4.2589 21.9586 -0.0000 0.0000 -21.2525 1.0018 -1.6008 -26.3417 -0.0000 -0.0000 -4.5786 5.1343 -1.9555 7.8104 -2.5525 1.1635 21.9772 27.6034 -2.2991 3.9722 -9.3674 4.8617 8.6388 8.1897 -3.7288 1.2154 -33.8929 -76.2956 -0.0001 -23.2488 -0.0000 -29.9283 15.4626 7.4744 -0.0000 0.0000 -0.0000 -0.0000 0.0000 -0.0000 7.6168 1.4568 -1.2311 4.0981 16.4022 81.9726 -0.0001 26.3371 0.0000 -35.1720 -3.0066 6.6315 -0.0000 0.0000 -0.0000 -0.0000 0.0000 -0.0000
 -4.2830 35.7888 9.1456 -37.3429 -81.7495 -35.0864 -16.2872 -2.4288 -4.9222 35.9284 0.0000 0.0000 -4.4488 -8.1639 -3.2843 -13.6209 0.0000 0.0000 -19.4800 4.3949 -4.8074 33.1835 0.0000 0.0000 -24.5969 2.7921 -1.0684 -25.5858 0.0000 0.0000 -2.8345 5.1059 -2.3816 7.7205 -2.5626 0.6813 19.4685 27.1144 -2.1414 2.4539 -9.9153 4.8287 8.0380 7.9342 -3.7764 0.5585 -37.1245 -75.3586 -0.0001 -23.7728 -0.0000 -29.1999 16.2807 6.5385 -0.0000 0.0000 -0.0000 -0.0000 0.0000 -0.0000 7.0333 1.7567 -1.1695 3.4393 16.3386 81.4160 -0.0001 27.1425 0.0000 -35.5859 -2.5039 7.1743 -0.0000 0.0000 -0.0000 -0.0000 0.0000 -0.0000
 -5.9202 33.4962 9.0338 -32.3766 -81.7533 -30.5535 -18.7818 -1.6525 -5.8214 48.4191 -0.0000 0.0000 -22.7203 -4.3586 10.0391 -7.1935 0.0000 -0.0000 -26.2291 5.1346 -3.7006 43.5850 -0.0000 0.0000 -20.0294 4.3707 4.6911 -21.4823 -0.0000 -0.0000 -1.9581 4.9213 -2.3058 7.4824 -2.7238 0.6925 16.2986 26.4336 -1.2271 -0.6500 -10.2838 3.1659 8.2864 7.5159 -4.6322 0.2861 -39.4589 -73.0792 -0.0001 -24.8456 -0.0000 -28.8404 17.0335 6.8521 -0.0000 0.0000 -0.0000 -0.0000 0.0000 -0.0000 7.5663 1.5704 -0.0762 1.8492 16.9318 79.8253 -0.0001 27.6044 0.0000 -36.7922 -2.6456 7.4295 -0.0000 0.0000 -0.0000 -0.0000 0.0000 -0.0000
